<svg width="198" height="36" viewBox="0 0 198 36" fill="none" xmlns="http://www.w3.org/2000/svg">
<rect width="36" height="36" rx="7" fill="#38A169"/>
<path d="M21.3827 13.5291C21.3089 12.7843 20.9919 12.2057 20.4317 11.7933C19.8716 11.3809 19.1114 11.1747 18.1512 11.1747C17.4987 11.1747 16.9478 11.267 16.4985 11.4517C16.0492 11.6302 15.7045 11.8795 15.4644 12.1996C15.2305 12.5196 15.1135 12.8828 15.1135 13.2891C15.1012 13.6276 15.172 13.9231 15.3259 14.1754C15.4859 14.4278 15.7045 14.6463 15.9814 14.831C16.2584 15.0095 16.5785 15.1664 16.9417 15.3018C17.3048 15.4311 17.6926 15.5419 18.105 15.6342L19.8039 16.0405C20.6287 16.2251 21.3858 16.4714 22.0752 16.7791C22.7646 17.0869 23.3617 17.4654 23.8664 17.9148C24.3711 18.3641 24.762 18.8935 25.039 19.5028C25.3221 20.1122 25.4668 20.8108 25.4729 21.5987C25.4668 22.7559 25.1713 23.7592 24.5866 24.6087C24.008 25.4519 23.1708 26.1075 22.0752 26.5753C20.9857 27.0369 19.6715 27.2678 18.1327 27.2678C16.6062 27.2678 15.2767 27.0339 14.1441 26.5661C13.0177 26.0982 12.1375 25.4058 11.5035 24.4886C10.8756 23.5653 10.5463 22.4235 10.5155 21.0632H14.3841C14.4272 21.6972 14.6088 22.2266 14.9289 22.6513C15.2551 23.0698 15.6891 23.3868 16.2307 23.6023C16.7786 23.8116 17.3972 23.9162 18.0866 23.9162C18.7636 23.9162 19.3515 23.8177 19.8501 23.6207C20.3548 23.4238 20.7457 23.1499 21.0226 22.799C21.2996 22.4482 21.4381 22.045 21.4381 21.5895C21.4381 21.1648 21.3119 20.8078 21.0596 20.5185C20.8134 20.2292 20.4502 19.983 19.9701 19.7798C19.4961 19.5767 18.9144 19.392 18.2251 19.2259L16.1661 18.7088C14.5719 18.321 13.3131 17.7147 12.3898 16.8899C11.4665 16.0651 11.008 14.9541 11.0141 13.5568C11.008 12.4119 11.3126 11.4117 11.9282 10.5561C12.5499 9.70052 13.4024 9.03267 14.4857 8.55256C15.569 8.07244 16.8001 7.83239 18.1789 7.83239C19.5823 7.83239 20.8072 8.07244 21.8536 8.55256C22.9062 9.03267 23.7248 9.70052 24.3096 10.5561C24.8943 11.4117 25.1959 12.4027 25.2144 13.5291H21.3827Z" fill="white"/>
<path d="M59.2822 14.6016C59.2197 13.9714 58.9515 13.4818 58.4775 13.1328C58.0036 12.7839 57.3604 12.6094 56.5479 12.6094C55.9958 12.6094 55.5296 12.6875 55.1494 12.8437C54.7692 12.9948 54.4775 13.2057 54.2744 13.4766C54.0765 13.7474 53.9775 14.0547 53.9775 14.3984C53.9671 14.6849 54.027 14.9349 54.1572 15.1484C54.2926 15.362 54.4775 15.5469 54.7119 15.7031C54.9463 15.8542 55.2171 15.987 55.5244 16.1016C55.8317 16.2109 56.1598 16.3047 56.5088 16.3828L57.9463 16.7266C58.6442 16.8828 59.2848 17.0911 59.8682 17.3516C60.4515 17.612 60.9567 17.9323 61.3838 18.3125C61.8109 18.6927 62.1416 19.1406 62.376 19.6562C62.6156 20.1719 62.738 20.763 62.7432 21.4297C62.738 22.4089 62.488 23.2578 61.9932 23.9766C61.5036 24.6901 60.7952 25.2448 59.8682 25.6406C58.9463 26.0312 57.8343 26.2266 56.5322 26.2266C55.2406 26.2266 54.1156 26.0286 53.1572 25.6328C52.2041 25.237 51.4593 24.651 50.9229 23.875C50.3916 23.0937 50.113 22.1276 50.0869 20.9766H53.3604C53.3968 21.513 53.5505 21.9609 53.8213 22.3203C54.0973 22.6745 54.4645 22.9427 54.9229 23.125C55.3864 23.3021 55.9098 23.3906 56.4932 23.3906C57.0661 23.3906 57.5635 23.3073 57.9854 23.1406C58.4124 22.974 58.7432 22.7422 58.9775 22.4453C59.2119 22.1484 59.3291 21.8073 59.3291 21.4219C59.3291 21.0625 59.2223 20.7604 59.0088 20.5156C58.8005 20.2708 58.4932 20.0625 58.0869 19.8906C57.6859 19.7187 57.1937 19.5625 56.6104 19.4219L54.8682 18.9844C53.5192 18.6562 52.4541 18.1432 51.6729 17.4453C50.8916 16.7474 50.5036 15.8073 50.5088 14.625C50.5036 13.6562 50.7614 12.8099 51.2822 12.0859C51.8083 11.362 52.5296 10.7969 53.4463 10.3906C54.363 9.98437 55.4046 9.78125 56.5713 9.78125C57.7588 9.78125 58.7952 9.98437 59.6807 10.3906C60.5713 10.7969 61.264 11.362 61.7588 12.0859C62.2536 12.8099 62.5088 13.6484 62.5244 14.6016H59.2822ZM71.3389 14V16.5H64.1123V14H71.3389ZM65.7529 11.125H69.0811V22.3125C69.0811 22.6198 69.1279 22.8594 69.2217 23.0312C69.3154 23.1979 69.4456 23.3151 69.6123 23.3828C69.7842 23.4505 69.9821 23.4844 70.2061 23.4844C70.3623 23.4844 70.5186 23.4714 70.6748 23.4453C70.8311 23.4141 70.9508 23.3906 71.0342 23.375L71.5576 25.8516C71.391 25.9036 71.1566 25.9635 70.8545 26.0313C70.5524 26.1042 70.1852 26.1484 69.7529 26.1641C68.9508 26.1953 68.2477 26.0885 67.6436 25.8437C67.0446 25.599 66.5785 25.2187 66.2451 24.7031C65.9118 24.1875 65.7477 23.5365 65.7529 22.75V11.125ZM78.7998 26.2344C77.5863 26.2344 76.5368 25.9766 75.6514 25.4609C74.7712 24.9401 74.0915 24.2161 73.6123 23.2891C73.1331 22.3568 72.8936 21.276 72.8936 20.0469C72.8936 18.8073 73.1331 17.724 73.6123 16.7969C74.0915 15.8646 74.7712 15.1406 75.6514 14.625C76.5368 14.1042 77.5863 13.8438 78.7998 13.8438C80.0133 13.8438 81.0602 14.1042 81.9404 14.625C82.8258 15.1406 83.5081 15.8646 83.9873 16.7969C84.4665 17.724 84.7061 18.8073 84.7061 20.0469C84.7061 21.276 84.4665 22.3568 83.9873 23.2891C83.5081 24.2161 82.8258 24.9401 81.9404 25.4609C81.0602 25.9766 80.0133 26.2344 78.7998 26.2344ZM78.8154 23.6562C79.3675 23.6562 79.8285 23.5 80.1982 23.1875C80.568 22.8698 80.8467 22.4375 81.0342 21.8906C81.2269 21.3437 81.3232 20.7214 81.3232 20.0234C81.3232 19.3255 81.2269 18.7031 81.0342 18.1562C80.8467 17.6094 80.568 17.1771 80.1982 16.8594C79.8285 16.5417 79.3675 16.3828 78.8154 16.3828C78.2581 16.3828 77.7894 16.5417 77.4092 16.8594C77.0342 17.1771 76.7503 17.6094 76.5576 18.1562C76.3701 18.7031 76.2764 19.3255 76.2764 20.0234C76.2764 20.7214 76.3701 21.3437 76.5576 21.8906C76.7503 22.4375 77.0342 22.8698 77.4092 23.1875C77.7894 23.5 78.2581 23.6562 78.8154 23.6562ZM92.292 26.2344C91.0628 26.2344 90.0055 25.974 89.1201 25.4531C88.2399 24.9271 87.5628 24.1979 87.0889 23.2656C86.6201 22.3333 86.3857 21.2604 86.3857 20.0469C86.3857 18.8177 86.6227 17.7396 87.0967 16.8125C87.5758 15.8802 88.2555 15.1536 89.1357 14.6328C90.016 14.1068 91.0628 13.8438 92.2764 13.8438C93.3232 13.8438 94.2399 14.0339 95.0264 14.4141C95.8128 14.7943 96.4352 15.3281 96.8936 16.0156C97.3519 16.7031 97.6045 17.5104 97.6514 18.4375H94.5107C94.4222 17.8385 94.1878 17.3568 93.8076 16.9922C93.4326 16.6224 92.9404 16.4375 92.3311 16.4375C91.8154 16.4375 91.3649 16.5781 90.9795 16.8594C90.5993 17.1354 90.3024 17.5391 90.0889 18.0703C89.8753 18.6016 89.7686 19.2448 89.7686 20C89.7686 20.7656 89.8727 21.4167 90.0811 21.9531C90.2946 22.4896 90.5941 22.8984 90.9795 23.1797C91.3649 23.4609 91.8154 23.6016 92.3311 23.6016C92.7113 23.6016 93.0524 23.5234 93.3545 23.3672C93.6618 23.2109 93.9144 22.9844 94.1123 22.6875C94.3154 22.3854 94.4482 22.0234 94.5107 21.6016H97.6514C97.5993 22.5182 97.3493 23.3255 96.9014 24.0234C96.4587 24.7161 95.8467 25.2578 95.0654 25.6484C94.2842 26.0391 93.3597 26.2344 92.292 26.2344ZM102.798 22.5469L102.806 18.5547H103.29L107.134 14H110.954L105.79 20.0313H105.001L102.798 22.5469ZM99.7822 26V10H103.11V26H99.7822ZM107.282 26L103.751 20.7734L105.97 18.4219L111.181 26H107.282ZM115.915 19.0625V26H112.587V14H115.759V16.1172H115.899C116.165 15.4193 116.61 14.8672 117.235 14.4609C117.86 14.0495 118.618 13.8438 119.509 13.8438C120.342 13.8438 121.069 14.026 121.688 14.3906C122.308 14.7552 122.79 15.276 123.134 15.9531C123.478 16.625 123.649 17.4271 123.649 18.3594V26H120.321V18.9531C120.326 18.2187 120.139 17.6458 119.759 17.2344C119.379 16.8177 118.855 16.6094 118.188 16.6094C117.741 16.6094 117.345 16.7057 117.001 16.8984C116.662 17.0911 116.397 17.3724 116.204 17.7422C116.017 18.1068 115.92 18.5469 115.915 19.0625ZM131.741 26.2344C130.507 26.2344 129.444 25.9844 128.554 25.4844C127.668 24.9792 126.986 24.2656 126.507 23.3437C126.028 22.4167 125.788 21.3203 125.788 20.0547C125.788 18.8203 126.028 17.737 126.507 16.8047C126.986 15.8724 127.66 15.1458 128.53 14.625C129.405 14.1042 130.431 13.8438 131.608 13.8438C132.4 13.8438 133.137 13.9714 133.819 14.2266C134.507 14.4766 135.106 14.8542 135.616 15.3594C136.132 15.8646 136.533 16.5 136.819 17.2656C137.106 18.026 137.249 18.9167 137.249 19.9375V20.8516H127.116V18.7891H134.116C134.116 18.3099 134.012 17.8854 133.804 17.5156C133.595 17.1458 133.306 16.8568 132.937 16.6484C132.572 16.4349 132.147 16.3281 131.663 16.3281C131.158 16.3281 130.71 16.4453 130.319 16.6797C129.934 16.9089 129.632 17.2187 129.413 17.6094C129.194 17.9948 129.082 18.4245 129.077 18.8984V20.8594C129.077 21.4531 129.187 21.9661 129.405 22.3984C129.629 22.8307 129.944 23.1641 130.351 23.3984C130.757 23.6328 131.239 23.75 131.796 23.75C132.166 23.75 132.504 23.6979 132.812 23.5938C133.119 23.4896 133.382 23.3333 133.601 23.125C133.819 22.9167 133.986 22.6615 134.101 22.3594L137.179 22.5625C137.022 23.3021 136.702 23.9479 136.218 24.5C135.739 25.0469 135.119 25.474 134.358 25.7813C133.603 26.0833 132.731 26.2344 131.741 26.2344ZM141.702 26L138.437 14H141.804L143.663 22.0625H143.772L145.71 14H149.015L150.983 22.0156H151.085L152.913 14H156.272L153.015 26H149.491L147.429 18.4531H147.28L145.218 26H141.702ZM168.032 17.4219L164.985 17.6094C164.933 17.349 164.821 17.1146 164.649 16.9062C164.478 16.6927 164.251 16.5234 163.97 16.3984C163.694 16.2682 163.363 16.2031 162.978 16.2031C162.462 16.2031 162.027 16.3125 161.673 16.5312C161.319 16.7448 161.142 17.0312 161.142 17.3906C161.142 17.6771 161.256 17.9193 161.485 18.1172C161.715 18.3151 162.108 18.474 162.665 18.5937L164.837 19.0312C166.004 19.2708 166.873 19.6562 167.446 20.1875C168.019 20.7187 168.306 21.4167 168.306 22.2812C168.306 23.0677 168.074 23.7578 167.61 24.3516C167.152 24.9453 166.522 25.4089 165.72 25.7422C164.923 26.0703 164.004 26.2344 162.962 26.2344C161.373 26.2344 160.108 25.9036 159.165 25.2422C158.228 24.5755 157.678 23.6693 157.517 22.5234L160.79 22.3516C160.889 22.8359 161.129 23.2057 161.509 23.4609C161.889 23.7109 162.376 23.8359 162.97 23.8359C163.553 23.8359 164.022 23.724 164.376 23.5C164.735 23.2708 164.918 22.9766 164.923 22.6172C164.918 22.3151 164.79 22.0677 164.54 21.875C164.29 21.6771 163.905 21.526 163.384 21.4219L161.306 21.0078C160.134 20.7734 159.261 20.3672 158.688 19.7891C158.121 19.2109 157.837 18.474 157.837 17.5781C157.837 16.8073 158.045 16.1432 158.462 15.5859C158.884 15.0286 159.475 14.599 160.235 14.2969C161.001 13.9948 161.897 13.8438 162.923 13.8438C164.438 13.8438 165.631 14.1641 166.501 14.8047C167.376 15.4453 167.886 16.3177 168.032 17.4219ZM178.313 26H174.688L180.212 10H184.571L190.087 26H186.462L182.454 13.6562H182.329L178.313 26ZM178.087 19.7109H186.649V22.3516H178.087V19.7109ZM195.396 10V26H192.013V10H195.396Z" fill="black"/>
<path d="M16 5.5C16 5.22386 16.2239 5 16.5 5H19.5C19.7761 5 20 5.22386 20 5.5V10H16V5.5Z" fill="white"/>
<path d="M16 25H20V29.5C20 29.7761 19.7761 30 19.5 30H16.5C16.2239 30 16 29.7761 16 29.5V25Z" fill="white"/>
</svg>