<svg width="36" height="36" viewBox="0 0 36 36" fill="none" xmlns="http://www.w3.org/2000/svg">
<g clip-path="url(#clip0_166_17)">
<rect width="36" height="36" rx="7" fill="#38A169"/>
<path d="M21.3827 13.5291C21.3089 12.7843 20.9919 12.2057 20.4317 11.7933C19.8716 11.3809 19.1114 11.1747 18.1512 11.1747C17.4987 11.1747 16.9478 11.267 16.4985 11.4517C16.0492 11.6302 15.7045 11.8795 15.4644 12.1996C15.2305 12.5196 15.1135 12.8828 15.1135 13.2891C15.1012 13.6276 15.172 13.9231 15.3259 14.1754C15.4859 14.4278 15.7045 14.6463 15.9814 14.831C16.2584 15.0095 16.5785 15.1664 16.9417 15.3018C17.3048 15.4311 17.6926 15.5419 18.105 15.6342L19.8039 16.0405C20.6287 16.2251 21.3858 16.4714 22.0752 16.7791C22.7646 17.0869 23.3617 17.4654 23.8664 17.9148C24.3711 18.3641 24.762 18.8935 25.039 19.5028C25.3221 20.1122 25.4668 20.8108 25.4729 21.5987C25.4668 22.7559 25.1713 23.7592 24.5866 24.6087C24.008 25.4519 23.1708 26.1075 22.0752 26.5753C20.9857 27.0369 19.6715 27.2678 18.1327 27.2678C16.6062 27.2678 15.2767 27.0339 14.1441 26.5661C13.0177 26.0982 12.1375 25.4058 11.5035 24.4886C10.8756 23.5653 10.5463 22.4235 10.5155 21.0632H14.3841C14.4272 21.6972 14.6088 22.2266 14.9289 22.6513C15.2551 23.0698 15.6891 23.3868 16.2307 23.6023C16.7786 23.8116 17.3972 23.9162 18.0866 23.9162C18.7636 23.9162 19.3515 23.8177 19.8501 23.6207C20.3548 23.4238 20.7457 23.1499 21.0226 22.799C21.2996 22.4482 21.4381 22.045 21.4381 21.5895C21.4381 21.1648 21.3119 20.8078 21.0596 20.5185C20.8134 20.2292 20.4502 19.983 19.9701 19.7798C19.4961 19.5767 18.9144 19.392 18.2251 19.2259L16.1661 18.7088C14.5719 18.321 13.3131 17.7147 12.3898 16.8899C11.4665 16.0651 11.008 14.9541 11.0141 13.5568C11.008 12.4119 11.3126 11.4117 11.9282 10.5561C12.5499 9.70052 13.4024 9.03267 14.4857 8.55256C15.569 8.07244 16.8001 7.83239 18.1789 7.83239C19.5823 7.83239 20.8072 8.07244 21.8536 8.55256C22.9062 9.03267 23.7248 9.70052 24.3096 10.5561C24.8943 11.4117 25.1959 12.4027 25.2144 13.5291H21.3827Z" fill="white"/>
<path d="M16 5.5C16 5.22386 16.2239 5 16.5 5H19.5C19.7761 5 20 5.22386 20 5.5V10H16V5.5Z" fill="white"/>
<path d="M16 25H20V29.5C20 29.7761 19.7761 30 19.5 30H16.5C16.2239 30 16 29.7761 16 29.5V25Z" fill="white"/>
</g>
<defs>
<clipPath id="clip0_166_17">
<rect width="36" height="36" rx="7" fill="white"/>
</clipPath>
</defs>
</svg>
